<svg width="400" height="250" viewBox="0 0 400 250" fill="none" xmlns="http://www.w3.org/2000/svg">
  <defs>
    <linearGradient id="designGrad" x1="0%" y1="0%" x2="100%" y2="100%">
      <stop offset="0%" style="stop-color:#8b5cf6;stop-opacity:1" />
      <stop offset="100%" style="stop-color:#a855f7;stop-opacity:1" />
    </linearGradient>
  </defs>
  
  <!-- Background -->
  <rect width="400" height="250" fill="#0a0a0a"/>
  
  <!-- Design Canvas -->
  <rect x="40" y="30" width="320" height="190" fill="url(#designGrad)" rx="12"/>
  
  <!-- Figma Interface -->
  <rect x="50" y="40" width="300" height="30" fill="#ffffff" opacity="0.1" rx="4"/>
  <circle cx="65" cy="55" r="4" fill="#ff5757"/>
  <circle cx="80" cy="55" r="4" fill="#fbbf24"/>
  <circle cx="95" cy="55" r="4" fill="#10b981"/>
  <text x="200" y="60" text-anchor="middle" fill="#ffffff" font-family="Arial" font-size="12" font-weight="bold">Website Redesign - Figma</text>
  
  <!-- Design Elements -->
  <!-- Header Section -->
  <rect x="60" y="80" width="280" height="40" fill="#ffffff" opacity="0.2" rx="6"/>
  <rect x="70" y="90" width="60" height="20" fill="#ffffff" opacity="0.8" rx="4"/>
  <text x="100" y="103" text-anchor="middle" fill="#8b5cf6" font-size="10" font-weight="bold">LOGO</text>
  
  <!-- Navigation -->
  <rect x="200" y="90" width="40" height="8" fill="#ffffff" opacity="0.6" rx="2"/>
  <rect x="250" y="90" width="40" height="8" fill="#ffffff" opacity="0.6" rx="2"/>
  <rect x="300" y="90" width="30" height="8" fill="#ffffff" opacity="0.6" rx="2"/>
  
  <!-- Hero Section -->
  <rect x="60" y="130" width="280" height="60" fill="#ffffff" opacity="0.15" rx="6"/>
  <rect x="70" y="140" width="120" height="12" fill="#ffffff" opacity="0.8" rx="2"/>
  <rect x="70" y="155" width="80" height="8" fill="#ffffff" opacity="0.6" rx="2"/>
  <rect x="70" y="167" width="60" height="15" fill="#fbbf24" opacity="0.9" rx="4"/>
  
  <!-- Image Placeholder -->
  <rect x="220" y="140" width="110" height="40" fill="#ffffff" opacity="0.3" rx="4"/>
  <circle cx="275" cy="160" r="15" fill="#ffffff" opacity="0.5"/>
  <path d="M 270 155 L 275 160 L 280 155" stroke="#8b5cf6" stroke-width="2" fill="none"/>
  
  <!-- Design Tools -->
  <rect x="60" y="200" width="80" height="15" fill="#ffffff" opacity="0.1" rx="4"/>
  <circle cx="75" cy="207" r="4" fill="#ff5757"/>
  <text x="85" y="210" fill="#ffffff" font-size="8">Figma</text>
  
  <rect x="150" y="200" width="80" height="15" fill="#ffffff" opacity="0.1" rx="4"/>
  <circle cx="165" cy="207" r="4" fill="#00d4ff"/>
  <text x="175" y="210" fill="#ffffff" font-size="8">Canva</text>
  
  <!-- Prototype Indicators -->
  <rect x="250" y="200" width="90" height="15" fill="#ffffff" opacity="0.1" rx="4"/>
  <text x="295" y="210" text-anchor="middle" fill="#ffffff" font-size="8">Interactive Prototype</text>
  
  <!-- Design Elements Floating -->
  <circle cx="320" cy="100" r="3" fill="#fbbf24" opacity="0.8"/>
  <rect x="315" y="115" width="10" height="10" fill="#10b981" opacity="0.8" rx="2"/>
  <path d="M 310 135 L 320 130 L 330 135 L 320 140 Z" fill="#ef4444" opacity="0.8"/>
</svg>