<svg width="64" height="64" viewBox="0 0 64 64" fill="none" xmlns="http://www.w3.org/2000/svg">
  <defs>
    <linearGradient id="confluenceGrad" x1="0%" y1="0%" x2="100%" y2="100%">
      <stop offset="0%" style="stop-color:#172b4d;stop-opacity:1" />
      <stop offset="100%" style="stop-color:#0052cc;stop-opacity:1" />
    </linearGradient>
  </defs>
  
  <!-- Background Circle -->
  <circle cx="32" cy="32" r="30" fill="url(#confluenceGrad)"/>
  
  <!-- Confluence Logo -->
  <circle cx="32" cy="32" r="18" fill="#ffffff"/>
  
  <!-- Confluence Waves -->
  <path d="M 20 32 Q 26 26 32 32 Q 38 38 44 32" stroke="#0052cc" stroke-width="3" fill="none"/>
  <path d="M 18 28 Q 24 22 30 28 Q 36 34 42 28" stroke="#0052cc" stroke-width="2" fill="none" opacity="0.7"/>
  <path d="M 18 36 Q 24 42 30 36 Q 36 30 42 36" stroke="#0052cc" stroke-width="2" fill="none" opacity="0.7"/>
  
  <!-- Document Icon -->
  <rect x="24" y="20" width="16" height="20" fill="#0052cc" opacity="0.1" rx="2"/>
  <rect x="26" y="24" width="12" height="2" fill="#0052cc" opacity="0.3"/>
  <rect x="26" y="28" width="8" height="2" fill="#0052cc" opacity="0.3"/>
  <rect x="26" y="32" width="10" height="2" fill="#0052cc" opacity="0.3"/>
  <rect x="26" y="36" width="6" height="2" fill="#0052cc" opacity="0.3"/>
</svg>