<svg width="64" height="64" viewBox="0 0 64 64" fill="none" xmlns="http://www.w3.org/2000/svg">
  <defs>
    <linearGradient id="dockerGrad" x1="0%" y1="0%" x2="100%" y2="100%">
      <stop offset="0%" style="stop-color:#2496ed;stop-opacity:1" />
      <stop offset="100%" style="stop-color:#0db7ed;stop-opacity:1" />
    </linearGradient>
  </defs>
  
  <!-- Background Circle -->
  <circle cx="32" cy="32" r="30" fill="url(#dockerGrad)"/>
  
  <!-- Docker Containers -->
  <rect x="16" y="28" width="8" height="12" fill="#ffffff" rx="1"/>
  <rect x="26" y="28" width="8" height="12" fill="#ffffff" rx="1"/>
  <rect x="36" y="28" width="8" height="12" fill="#ffffff" rx="1"/>
  <rect x="46" y="28" width="8" height="12" fill="#ffffff" rx="1"/>
  
  <rect x="21" y="20" width="8" height="12" fill="#ffffff" rx="1"/>
  <rect x="31" y="20" width="8" height="12" fill="#ffffff" rx="1"/>
  <rect x="41" y="20" width="8" height="12" fill="#ffffff" rx="1"/>
  
  <rect x="26" y="12" width="8" height="12" fill="#ffffff" rx="1"/>
  <rect x="36" y="12" width="8" height="12" fill="#ffffff" rx="1"/>
  
  <!-- Docker Whale -->
  <path d="M 12 42 Q 8 42 8 46 Q 8 50 12 50 L 52 50 Q 56 50 56 46 Q 56 42 52 42 Z" fill="#ffffff" opacity="0.9"/>
  
  <!-- Whale Eye -->
  <circle cx="48" cy="46" r="2" fill="#2496ed"/>
</svg>