<svg width="64" height="64" viewBox="0 0 64 64" fill="none" xmlns="http://www.w3.org/2000/svg">
  <defs>
    <linearGradient id="gitVersionGrad" x1="0%" y1="0%" x2="100%" y2="100%">
      <stop offset="0%" style="stop-color:#f14e32;stop-opacity:1" />
      <stop offset="100%" style="stop-color:#e94e32;stop-opacity:1" />
    </linearGradient>
  </defs>
  
  <!-- Background Circle -->
  <circle cx="32" cy="32" r="30" fill="url(#gitVersionGrad)"/>
  
  <!-- Git Branch Structure -->
  <circle cx="20" cy="20" r="3" fill="#ffffff"/>
  <circle cx="32" cy="20" r="3" fill="#ffffff"/>
  <circle cx="44" cy="20" r="3" fill="#ffffff"/>
  
  <circle cx="20" cy="32" r="3" fill="#ffffff"/>
  <circle cx="32" cy="32" r="3" fill="#ffffff"/>
  <circle cx="44" cy="32" r="3" fill="#ffffff"/>
  
  <circle cx="20" cy="44" r="3" fill="#ffffff"/>
  <circle cx="32" cy="44" r="3" fill="#ffffff"/>
  <circle cx="44" cy="44" r="3" fill="#ffffff"/>
  
  <!-- Branch Lines -->
  <line x1="20" y1="23" x2="20" y2="29" stroke="#ffffff" stroke-width="2"/>
  <line x1="32" y1="23" x2="32" y2="29" stroke="#ffffff" stroke-width="2"/>
  <line x1="44" y1="23" x2="44" y2="29" stroke="#ffffff" stroke-width="2"/>
  
  <line x1="20" y1="35" x2="20" y2="41" stroke="#ffffff" stroke-width="2"/>
  <line x1="32" y1="35" x2="32" y2="41" stroke="#ffffff" stroke-width="2"/>
  <line x1="44" y1="35" x2="44" y2="41" stroke="#ffffff" stroke-width="2"/>
  
  <line x1="23" y1="20" x2="29" y2="20" stroke="#ffffff" stroke-width="2"/>
  <line x1="35" y1="20" x2="41" y2="20" stroke="#ffffff" stroke-width="2"/>
  
  <!-- Version Tags -->
  <rect x="12" y="50" width="16" height="8" fill="#ffffff" opacity="0.9" rx="2"/>
  <text x="20" y="56" text-anchor="middle" fill="#f14e32" font-family="monospace" font-size="6" font-weight="bold">v1.0.0</text>
  
  <rect x="36" y="50" width="16" height="8" fill="#ffffff" opacity="0.9" rx="2"/>
  <text x="44" y="56" text-anchor="middle" fill="#f14e32" font-family="monospace" font-size="6" font-weight="bold">v2.1.3</text>
</svg>