<svg width="64" height="64" viewBox="0 0 64 64" fill="none" xmlns="http://www.w3.org/2000/svg">
  <defs>
    <linearGradient id="yamlGrad" x1="0%" y1="0%" x2="100%" y2="100%">
      <stop offset="0%" style="stop-color:#cb171e;stop-opacity:1" />
      <stop offset="100%" style="stop-color:#a61e1e;stop-opacity:1" />
    </linearGradient>
  </defs>
  
  <!-- Background Circle -->
  <circle cx="32" cy="32" r="30" fill="url(#yamlGrad)"/>
  
  <!-- YAML Document -->
  <rect x="16" y="12" width="32" height="40" fill="#ffffff" rx="2"/>
  
  <!-- YAML Content Lines -->
  <rect x="20" y="18" width="4" height="2" fill="#cb171e"/>
  <rect x="26" y="18" width="16" height="2" fill="#666666"/>
  
  <rect x="20" y="24" width="2" height="2" fill="#cb171e"/>
  <rect x="24" y="24" width="12" height="2" fill="#666666"/>
  
  <rect x="20" y="30" width="2" height="2" fill="#cb171e"/>
  <rect x="24" y="30" width="18" height="2" fill="#666666"/>
  
  <rect x="22" y="36" width="4" height="2" fill="#cb171e"/>
  <rect x="28" y="36" width="10" height="2" fill="#666666"/>
  
  <rect x="22" y="42" width="4" height="2" fill="#cb171e"/>
  <rect x="28" y="42" width="14" height="2" fill="#666666"/>
  
  <!-- YAML Indicators -->
  <text x="18" y="22" fill="#cb171e" font-family="monospace" font-size="6">-</text>
  <text x="18" y="28" fill="#cb171e" font-family="monospace" font-size="6">-</text>
  <text x="18" y="34" fill="#cb171e" font-family="monospace" font-size="6">-</text>
</svg>